<svg width="22" height="22" version="1.1" viewBox="0 0 5.8208332 5.8208333" xmlns="http://www.w3.org/2000/svg">
    <style type="text/css" id="current-color-scheme">
        .ColorScheme-Text {
        color:#232629;
        }
    </style>
    <g class="ColorScheme-Text" fill="currentColor">
        <path d="m1.5874999 0.79374976v0.52916674h-0.2645833v0.2645833h-0.5291667v0.2645833h0.5291667v0.5291667h-0.5291667v0.2645833h0.5291667v0.5291667h-0.5291667v0.2645833h0.5291667v0.5291667h-0.5291667v0.2645833h0.5291667v0.2645834h0.2645833v0.5291666h0.2645833v-0.5291666h0.5291667v0.5291666h0.2645833v-0.5291666h0.5291667v0.5291666h0.2645833v-0.5291666h0.5291667v0.5291666h0.2645833v-0.5291666h0.2645834v-0.2645834h0.5291666v-0.2645833h-0.5291666v-0.5291667h0.5291666v-0.2645833h-0.5291666v-0.5291667h0.5291666v-0.2645833h-0.5291666v-0.5291667h0.5291666v-0.2645833h-0.5291666v-0.2645833h-0.2645834v-0.52916674h-0.2645833v0.52916674h-0.5291667v-0.52916674h-0.2645833v0.52916674h-0.5291667v-0.52916674h-0.2645833v0.52916674h-0.5291667v-0.52916674zm0 0.79375004h2.6458333v2.6458333h-2.6458333z" stroke-width=".216031"/>
        <path transform="rotate(-21.60152)" d="m1.188757 2.7472554-1.85e-4 1.7073443 0.307501 0.1217577 1.1686887-1.2446651-0.2642586-0.1046355-0.9474572 1.008788-3.02e-5 -1.3839539-0.2642587-0.1046355z" stroke-linecap="round" stroke-width=".151663" style="font-variation-settings:'opsz' 32, 'wght' 610"/>
    </g>
</svg>
