<svg width="22" height="22" version="1.1" viewBox="0 0 5.8208332 5.8208333" xmlns="http://www.w3.org/2000/svg">
    <style type="text/css" id="current-color-scheme">
        .ColorScheme-Text {
        color:#232629;
        }
    </style>
    <g class="ColorScheme-Text" fill="currentColor">
        <path d="m1.5874999 0.79374984v0.52916666h-0.2645833v0.2645833h-0.52916669v0.2645833h0.52916669v0.5291667h-0.52916669v0.2645833h0.52916669v0.5291667h-0.52916669v0.2645833h0.52916669v0.5291667h-0.52916669v0.2645833h0.52916669v0.2645834h0.2645833v0.5291666h0.2645833v-0.5291666h0.5291667v0.5291666h0.2645833v-0.5291666h0.5291667v0.5291666h0.2645833v-0.5291666h0.5291667v0.5291666h0.2645833v-0.5291666h0.2645834v-0.2645834h0.5291666v-0.2645833h-0.5291666v-0.5291667h0.5291666v-0.2645833h-0.5291666v-0.5291667h0.5291666v-0.2645833h-0.5291666v-0.5291667h0.5291666v-0.2645833h-0.5291666v-0.2645833h-0.2645834v-0.52916666h-0.2645833v0.52916666h-0.5291667v-0.52916666h-0.2645833v0.52916666h-0.5291667v-0.52916666h-0.2645833v0.52916666h-0.5291667v-0.52916666zm0 0.79374996h2.6458333v2.6458333h-2.6458333z" stroke-width=".216031"/>
        <path d="m2.8504681 2.0505206c-0.4065113 0-0.7338053 0.3272941-0.7338053 0.7338054v0.252181c0 0.4065113 0.327294 0.7338053 0.7338053 0.7338053h0.1198893c0.3107769 0 0.5753118-0.1912876 0.6826457-0.4630208h-0.3183268c-0.0926991 0.1207769-0.2383723 0.1984375-0.4030762 0.1984375h-0.042375c-0.2663022 0-0.4833343-0.2027712-0.5059122-0.4630209h1.3208496c1.72e-5 -0.00208 0-0.00411 0-0.0062v-0.2521821c0-0.4065113-0.3272941-0.7338054-0.7338054-0.7338054zm0.038757 0.2645834h0.042375c0.2663023 0 0.4833344 0.2027713 0.5059123 0.4630208h-1.0541992c0.0225779-0.2602495 0.2396103-0.4630208 0.5059122-0.4630208z" style="font-variation-settings:'opsz' 32, 'wght' 610"/>
    </g>
</svg>
