<svg width="22" height="22" version="1.1" viewBox="0 0 5.8208332 5.8208333" xmlns="http://www.w3.org/2000/svg">
    <style type="text/css" id="current-color-scheme">
        .ColorScheme-Text {
        color:#232629;
        }
    </style>
    <path d="m2.8504718 2.0505206c-0.4065109 0-0.7338053 0.3272945-0.7338053 0.7338054v0.2521809c0 0.4065109 0.3272944 0.7338054 0.7338053 0.7338054h0.1198893c0.1039796 0 0.2025012-0.0217861 0.2919719-0.0604614a0.92604166 0.9260416 0 0 1 0.3648356-0.4025594h-0.2924886c-0.092699 0.1207767-0.2383725 0.1984375-0.4030762 0.1984375h-0.0423747c-0.2663019 0-0.4833344-0.2027714-0.5059122-0.4630209h1.3208496c1.72e-5 -0.00208 0-0.0041112 0-0.0062012v-0.2521809c0-0.4065109-0.3272945-0.7338054-0.7338054-0.7338054h-0.1198893zm0.0387573 0.2645834h0.0423747c0.266302 0 0.4833344 0.2027715 0.5059123 0.4630208h-1.0541992c0.0225778-0.2602493 0.2396109-0.4630208 0.5059122-0.4630208z" class="ColorScheme-Text" fill="currentColor" style="font-variation-settings:'opsz' 32, 'wght' 610"/>
    <path d="m1.5875 0.79374976v0.52916674h-0.2645833v0.2645833h-0.52916675v0.2645833h0.52916675v0.5291667h-0.52916675v0.2645833h0.52916675v0.5291667h-0.52916675v0.2645833h0.52916675v0.5291667h-0.52916675v0.2645833h0.52916675v0.2645834h0.2645833v0.5291666h0.2645833v-0.5291666h0.5291667v0.5291666h0.2645833v-0.5291666h0.5291667v0.5291666h0.2645833v-0.2811198a0.92604166 0.92604166 0 0 1-0.2537312-0.5126302h-1.5983521v-2.6458333h2.6458333v1.5983521a0.92604166 0.92604166 0 0 1 0.5126302 0.2537312h0.2811198v-0.2645833h-0.5291666v-0.5291667h0.5291666v-0.2645833h-0.5291666v-0.5291667h0.5291666v-0.2645833h-0.5291666v-0.2645833h-0.2645834v-0.52916674h-0.2645833v0.52916674h-0.5291667v-0.52916674h-0.2645833v0.52916674h-0.5291667v-0.52916674h-0.2645833v0.52916674h-0.5291667v-0.52916674z" class="ColorScheme-Text" fill="currentColor" stroke-width=".216031"/>
    <g transform="rotate(45,2.7613102,3.9054588)">
        <path transform="rotate(-45)" d="m1.1921539 4.9096999a0.66145831 0.66145831 0 0 1-0.66145828 0.6614583 0.66145831 0.66145831 0 0 1-0.66145832-0.6614583 0.66145831 0.66145831 0 0 1 0.66145832-0.6614583 0.66145831 0.66145831 0 0 1 0.66145828 0.6614583z" fill="#11d116" stroke-linecap="round" stroke-width=".264584"/>
    </g>
</svg>
