<svg width="22" height="22" version="1.1" viewBox="0 0 5.8208332 5.8208333" xmlns="http://www.w3.org/2000/svg">
    <style id="current-color-scheme" type="text/css">.ColorScheme-Text {
        color:#232629;
        }</style>
    <g class="ColorScheme-Text" fill="currentColor">
        <path d="m1.5874999 0.79374976v0.52916674h-0.2645833v0.2645833h-0.5291667v0.2645833h0.5291667v0.5291667h-0.5291667v0.2645833h0.5291667v0.5291667h-0.5291667v0.2645833h0.5291667v0.5291667h-0.5291667v0.2645833h0.5291667v0.2645834h0.2645833v0.5291666h0.2645833v-0.5291666h0.5291667v0.5291666h0.2645833v-0.5291666h0.5291667v0.5291666h0.2645833v-0.5291666h0.5291667v0.5291666h0.2645833v-0.5291666h0.2645834v-0.2645834h0.5291666v-0.2645833h-0.5291666v-0.5291667h0.5291666v-0.2645833h-0.5291666v-0.5291667h0.5291666v-0.2645833h-0.5291666v-0.5291667h0.5291666v-0.2645833h-0.5291666v-0.2645833h-0.2645834v-0.52916674h-0.2645833v0.52916674h-0.5291667v-0.52916674h-0.2645833v0.52916674h-0.5291667v-0.52916674h-0.2645833v0.52916674h-0.5291667v-0.52916674zm0 0.79375004h2.6458333v2.6458333h-2.6458333z" stroke-width=".216031"/>
        <path d="m2.38125 2.1166666v1.5874998h0.2645833v-0.5291666h0.5291667v0.5291666h0.2645833v-1.5874998h-0.2645833v0.7730793h-0.5291667v-0.7730793z" stroke-width=".264583"/>
    </g>
</svg>
