<svg width="22" height="22" version="1.1" viewBox="0 0 5.8208332 5.8208333" xmlns="http://www.w3.org/2000/svg">
    <style type="text/css" id="current-color-scheme">
        .ColorScheme-Text {
        color:#232629;
        }
    </style>
    <path d="m1.5875 0.79375v0.5291667h-0.2645833v0.2645833h-0.5291667v0.2645833h0.5291667v0.5291667h-0.5291667v0.2645833h0.5291667v0.5291667h-0.5291667v0.2645833h0.5291667v0.5291667h-0.5291667v0.2645833h0.5291667v0.2645834h0.2645833v0.5291666h0.2645833v-0.5291666h0.5291667v0.5291666h0.2645833v-0.5291666h0.5291667v0.5291666h0.2645833v-0.2811198a0.92604166 0.92604166 0 0 1-0.2537312-0.5126302h-1.5983521v-2.6458333h2.6458333v1.5983521a0.92604166 0.92604166 0 0 1 0.5126302 0.2537312h0.2811198v-0.2645833h-0.5291666v-0.5291667h0.5291666v-0.2645833h-0.5291666v-0.5291667h0.5291666v-0.2645833h-0.5291666v-0.2645833h-0.2645834v-0.5291667h-0.2645833v0.5291667h-0.5291667v-0.5291667h-0.2645833v0.5291667h-0.5291667v-0.5291667h-0.2645833v0.5291667h-0.5291667v-0.5291667h-0.2645833z" class="ColorScheme-Text" fill="currentColor" stroke-width=".216031"/>
    <g transform="rotate(45,2.7613099,3.905459)">
        <path transform="rotate(-45)" d="m1.1921539 4.9096999a0.66145831 0.66145831 0 0 1-0.66145828 0.6614583 0.66145831 0.66145831 0 0 1-0.66145832-0.6614583 0.66145831 0.66145831 0 0 1 0.66145832-0.6614583 0.66145831 0.66145831 0 0 1 0.66145828 0.6614583z" fill="#11d116" stroke-linecap="round" stroke-width=".264584"/>
    </g>
    <path transform="rotate(-21.60152)" d="m1.188757 2.7472554-1.85e-4 1.7073443 0.307501 0.1217577 1.1686887-1.2446651-0.2642586-0.1046355-0.9474572 1.008788-3.02e-5 -1.3839539-0.2642587-0.1046355z" class="ColorScheme-Text" fill="currentColor" stroke-linecap="round" stroke-width=".151663" style="font-variation-settings:'opsz' 32, 'wght' 610"/>
</svg>
