<svg width="22" height="22" version="1.1" viewBox="0 0 5.8208332 5.8208333" xmlns="http://www.w3.org/2000/svg">
    <style type="text/css" id="current-color-scheme">
        .ColorScheme-Text {
        color:#232629;
        }
    </style>
    <path d="m1.5875 0.79375v0.5291667h-0.2645833v0.2645833h-0.5291667v0.2645833h0.5291667v0.5291667h-0.5291667v0.2645833h0.5291667v0.5291667h-0.5291667v0.2645833h0.5291667v0.5291667h-0.5291667v0.2645833h0.5291667v0.2645834h0.2645833v0.5291666h0.2645833v-0.5291666h0.5291667v0.5291666h0.2645833v-0.5291666h0.5291667v0.5291666h0.2645833v-0.2811198a0.92604166 0.92604166 0 0 1-0.2537312-0.5126302h-0.0015503a0.92604166 0.9260416 0 0 1-0.0093018-0.1322916 0.92604166 0.9260416 0 0 1 0.9260417-0.9260417 0.92604166 0.9260416 0 0 1 0.1322916 0.0093018v0.0015503a0.92604166 0.92604166 0 0 1 0.5126302 0.2537312h0.2811198v-0.2645833h-0.5291666v-0.5291667h0.5291666v-0.2645833h-0.5291666v-0.5291667h0.5291666v-0.2645833h-0.5291666v-0.2645833h-0.2645834v-0.5291667h-0.2645833v0.5291667h-0.5291667v-0.5291667h-0.2645833v0.5291667h-0.5291667v-0.5291667h-0.2645833v0.5291667h-0.5291667v-0.5291667h-0.2645833z" class="ColorScheme-Text" fill="currentColor" stroke-width=".216031"/>
    <g transform="rotate(45,2.7613099,3.905459)">
        <path transform="rotate(-45)" d="m1.1921539 4.9096999a0.66145831 0.66145831 0 0 1-0.66145828 0.6614583 0.66145831 0.66145831 0 0 1-0.66145832-0.6614583 0.66145831 0.66145831 0 0 1 0.66145832-0.6614583 0.66145831 0.66145831 0 0 1 0.66145828 0.6614583z" fill="#11d116" stroke-linecap="round" stroke-width=".264584"/>
    </g>
</svg>
