<svg width="22" height="22" version="1.1" viewBox="0 0 5.8208332 5.8208333" xmlns="http://www.w3.org/2000/svg">
    <style type="text/css" id="current-color-scheme">
        .ColorScheme-Text {
        color:#232629;
        }
    </style>
    <path d="m1.5875 0.79375v0.5291667h-0.2645833v0.2645833h-0.5291667v0.2645833h0.5291667v0.5291667h-0.5291667v0.2645833h0.5291667v0.5291667h-0.5291667v0.2645833h0.5291667v0.5291667h-0.5291667v0.2645833h0.5291667v0.2645834h0.2645833v0.5291666h0.2645833v-0.5291666h0.5291667v0.5291666h0.2645833v-0.5291666h0.5291667v0.5291666h0.2645833v-0.5291666h0.5291667v0.5291666h0.2645833v-0.5291666h0.2645834v-0.2645834h0.5291666v-0.2645833h-0.5291666v-0.5291667h0.5291666v-0.2645833h-0.5291666v-0.5291667h0.5291666v-0.2645833h-0.5291666v-0.5291667h0.5291666v-0.2645833h-0.5291666v-0.2645833h-0.2645834v-0.5291667h-0.2645833v0.5291667h-0.5291667v-0.5291667h-0.2645833v0.5291667h-0.5291667v-0.5291667h-0.2645833v0.5291667h-0.5291667v-0.5291667h-0.2645833z" class="ColorScheme-Text" fill="currentColor" stroke-width=".216031"/>
</svg>
