<svg width="22" height="22" version="1.1" viewBox="0 0 5.8208332 5.8208333" xmlns="http://www.w3.org/2000/svg">
    <style id="current-color-scheme" type="text/css">.ColorScheme-Text {
        color:#232629;
        }</style>
    <path class="ColorScheme-Text" d="m1.5874998 0.79374992v0.52916668h-0.2645833v0.2645833h-0.52916667v0.2645833h0.52916667v0.5291667h-0.52916667v0.2645833h0.52916667v0.5291667h-0.52916667v0.2645833h0.52916667v0.5291667h-0.52916667v0.2645833h0.52916667v0.2645834h0.2645833v0.5291666h0.2645833v-0.5291666h0.5291667v0.5291666h0.2645833v-0.5291666h0.5291667v0.5291666h0.2645833v-0.2811198a0.92604166 0.92604166 0 0 1-0.2537312-0.5126302h-1.5983521v-2.6458333h2.6458333v1.5983521a0.92604166 0.92604166 0 0 1 0.5126302 0.2537312h0.2811198v-0.2645833h-0.5291666v-0.5291667h0.5291666v-0.2645833h-0.5291666v-0.5291667h0.5291666v-0.2645833h-0.5291666v-0.2645833h-0.2645834v-0.52916668h-0.2645833v0.52916668h-0.5291667v-0.52916668h-0.2645833v0.52916668h-0.5291667v-0.52916668h-0.2645833v0.52916668h-0.5291667v-0.52916668z" fill="currentColor" stroke-width=".216031"/>
    <g transform="rotate(45,2.7613099,3.9054587)">
        <path transform="rotate(-45)" d="m1.1921539 4.9096999a0.66145831 0.66145831 0 0 1-0.66145828 0.6614583 0.66145831 0.66145831 0 0 1-0.66145832-0.6614583 0.66145831 0.66145831 0 0 1 0.66145832-0.6614583 0.66145831 0.66145831 0 0 1 0.66145828 0.6614583z" fill="#11d116" stroke-linecap="round" stroke-width=".264584"/>
    </g>
    <path d="m2.38125 2.1166666v0.7730795 0.2852539 0.5291666h0.2645833v-0.5291666h0.5291667v0.5291666h0.2645833v-0.5291666-0.2852539-0.7730795h-0.2645833v0.7730795h-0.5291667v-0.7730795h-0.2645833z" class="ColorScheme-Text" stroke-width=".264583" fill="currentColor"/>
</svg>
